<svg width="1139" height="950" viewBox="0 0 1139 950" fill="none" xmlns="http://www.w3.org/2000/svg">
<path d="M499.957 56.7346C743.174 -166.093 655.298 -245.933 580.958 -258L1027 -204.706V105.503C1022.68 187.79 898.047 401.133 434.077 596.208C-145.886 840.052 19.8945 562.02 27.9946 386.552C36.0946 211.085 195.935 335.27 499.957 56.7346Z" fill="#8F99AF"/>
<path d="M1004.96 314.735C1248.17 91.9065 1160.3 12.0665 1085.96 0L1532 53.2937V363.503C1527.68 445.79 1403.05 659.133 939.077 854.208C359.114 1098.05 524.895 820.02 532.995 644.552C541.095 469.085 700.935 593.27 1004.96 314.735Z" fill="#C5CCD4"/>
<path d="M794.957 241.735C1038.17 18.9065 950.298 -60.9335 875.958 -73L1322 -19.7063V290.503C1317.68 372.79 1193.05 586.133 729.077 781.208C149.114 1025.05 314.895 747.02 322.995 571.552C331.095 396.085 490.935 520.27 794.957 241.735Z" fill="#687896"/>
</svg>
